<svg width="14" height="15" viewBox="0 0 14 15" fill="none" xmlns="http://www.w3.org/2000/svg">
<path d="M5.79492 10.8438L11.7949 4.84375L10.8574 3.875L5.79492 8.9375L3.41992 6.5625L2.48242 7.5L5.79492 10.8438ZM2.41992 2.8125C3.73242 1.5 5.30534 0.84375 7.13867 0.84375C8.97201 0.84375 10.5345 1.5 11.8262 2.8125C13.1387 4.10417 13.7949 5.66667 13.7949 7.5C13.7949 9.33333 13.1387 10.9062 11.8262 12.2188C10.5345 13.5104 8.97201 14.1562 7.13867 14.1562C5.30534 14.1562 3.73242 13.5104 2.41992 12.2188C1.12826 10.9062 0.482422 9.33333 0.482422 7.5C0.482422 5.66667 1.12826 4.10417 2.41992 2.8125Z" fill="#D4009B"/>
</svg>
