<svg width="251" height="24" viewBox="0 0 251 24" fill="none" xmlns="http://www.w3.org/2000/svg">
<path d="M28.2191 8.272C27.2297 9.09333 26.0817 10.456 24.7751 12.36H26.1471V23H19.3991V22.58H9.26305V23H2.51505V12.36H22.2831L20.9671 10.96L1.61905 11.94C1.58172 11.604 1.54439 11.3427 1.50705 11.156C1.26439 9.14 1.00305 7.56267 0.723055 6.424L4.47505 6.34L7.44305 1.412L15.1151 1.888L12.6791 6.172L17.0191 6.06C16.3657 5.14533 15.7031 4.044 15.0311 2.756L21.1071 1.468C22.2271 3.05467 23.4124 4.408 24.6631 5.528C25.9137 6.648 27.0991 7.56267 28.2191 8.272ZM9.26305 16.56V17.848H19.3991V16.56H9.26305ZM42.5551 17.904H55.7151C55.7151 18.7253 55.6777 19.4813 55.6031 20.172C55.5284 21.1987 55.0057 21.9267 54.0351 22.356C53.0644 22.7667 51.6644 22.972 49.8351 22.972H45.0471H41.9391C41.8084 22.356 41.5937 21.7867 41.2951 21.264C38.9617 20.9467 36.8711 20.7787 35.0231 20.76C35.6951 19.0427 36.1524 17.4933 36.3951 16.112H48.0991V15.776H35.5831V14.572L35.4151 15.44C34.6684 19.2293 34.1364 21.7773 33.8191 23.084C31.3924 22.4867 29.5351 22.0853 28.2471 21.88C28.8257 20.2747 29.3017 18.7347 29.6751 17.26C30.0484 15.7667 30.4124 14.152 30.7671 12.416L32.6711 12.724C31.4951 12.0893 30.1044 11.5573 28.4991 11.128L31.1031 6.844C31.9991 7.10533 33.1377 7.572 34.5191 8.244L35.4431 8.664C35.4431 8.08533 35.3964 7.404 35.3031 6.62L36.4791 6.564L36.8991 6.116C36.5631 5.74267 36.1711 5.34133 35.7231 4.912L34.4351 7.6C32.4937 6.704 30.4777 6.05067 28.3871 5.64L30.7671 1.16C31.5884 1.36533 32.7924 1.79467 34.3791 2.448L35.8071 3.008L36.1991 2.168L36.5631 2.504C36.8991 1.98133 37.1604 1.48667 37.3471 1.02L39.5311 1.636L37.9911 3.932L38.3271 4.296C39.0177 3.344 39.6524 2.31733 40.2311 1.216L41.9951 1.776H49.3311V3.288H41.9951V2.56L41.5191 3.232C41.2764 3.624 41.0151 4.00667 40.7351 4.38L41.4351 4.268C41.4911 4.772 41.5564 5.276 41.6311 5.78C41.7244 6.284 41.7897 6.648 41.8271 6.872C41.9764 7.73067 42.0697 8.31867 42.1071 8.636L40.5391 8.86L40.4831 8.384L40.0631 8.468L39.9511 13.508H37.2631L37.3471 8.832L36.0591 8.972L35.8351 9.392L36.8991 9.364V10.26C36.8991 11.3427 36.8431 12.4067 36.7311 13.452C36.5817 13.4333 36.4324 13.4147 36.2831 13.396C36.1524 13.3773 35.9937 13.368 35.8071 13.368L35.7231 13.816H55.0431V17.624H42.6111L42.5551 17.904ZM49.4431 3.736L50.1711 2.168L50.5351 2.504C50.8711 1.98133 51.1324 1.48667 51.3191 1.02L53.5031 1.636C52.8124 2.68133 52.2991 3.43733 51.9631 3.904L52.2991 4.296C52.9897 3.38133 53.6337 2.35467 54.2311 1.216L56.0231 2.168L54.5111 4.408L55.4071 4.268C55.5751 5.668 55.7617 6.90933 55.9671 7.992L56.0791 8.636L54.5111 8.86L54.4551 8.384L54.0351 8.468L53.9231 13.508H51.2351L51.3191 8.832C51.1324 8.85067 50.4697 8.916 49.3311 9.028C49.3311 8.076 49.2751 7.27333 49.1631 6.62L50.4791 6.564L50.8711 6.144C50.4977 5.696 50.0404 5.22 49.4991 4.716V5.388H41.8831V3.736H49.4431ZM53.9511 5.248L53.1671 6.48C53.4284 6.48 53.7457 6.46133 54.1191 6.424L53.9511 5.248ZM39.2511 6.48L40.1471 6.424C40.1284 6.21867 40.0817 5.892 40.0071 5.444L39.2511 6.48ZM42.4151 5.892H48.8831V7.432H42.4151V5.892ZM48.8831 9.392H42.4151V7.88H48.8831V9.392ZM40.4271 13.368C40.3711 11.7067 40.3431 10.344 40.3431 9.28L41.7711 9.196C41.7711 10.876 41.7897 12.2107 41.8271 13.2C41.5844 13.256 41.1177 13.312 40.4271 13.368ZM55.7151 9.196C55.7151 9.94267 55.7337 10.5867 55.7711 11.128C55.8084 11.6507 55.8737 12.332 55.9671 13.172C55.0711 13.284 54.5484 13.3493 54.3991 13.368C54.3431 11.7067 54.3151 10.344 54.3151 9.28L55.7151 9.196ZM49.3871 13.34C49.5177 12.1453 49.5831 10.8293 49.5831 9.392L50.8711 9.364V10.26C50.8711 11.3427 50.8151 12.4067 50.7031 13.452C49.9564 13.3773 49.5177 13.34 49.3871 13.34ZM33.7911 12.92L35.3031 13.172C35.4337 12.5187 35.5177 11.9493 35.5551 11.464C35.5924 10.9787 35.6111 10.4093 35.6111 9.756L33.7911 12.92ZM49.0791 13.508H42.2191V9.868H49.0791V13.508ZM46.3911 11.408H44.9071V12.08H46.3911V11.408ZM42.0231 19.696L41.9111 20.004C43.6097 20.06 45.6537 20.088 48.0431 20.088C48.4537 20.088 48.7337 20.0693 48.8831 20.032C49.0511 19.976 49.1444 19.864 49.1631 19.696H42.0231ZM76.4911 18.884V19.276H83.4071V22.776H63.0511V19.808C62.8831 21.0773 62.6217 22.216 62.2671 23.224C60.9417 22.5707 59.8591 22.0667 59.0191 21.712C58.1791 21.3573 57.2831 21.096 56.3311 20.928C56.7044 19.92 56.9844 18.94 57.1711 17.988C57.3577 17.0173 57.4884 15.7293 57.5631 14.124C57.6564 12.5187 57.7031 10.2507 57.7031 7.32V2.056L83.3791 2.084L83.4071 6.536H63.5551C63.5364 6.704 63.5271 6.844 63.5271 6.956C63.5457 7.04933 63.5551 7.14267 63.5551 7.236V8.636C63.5551 9.94267 63.5364 11.492 63.4991 13.284C64.0964 13.172 64.5444 13.0507 64.8431 12.92C65.1604 12.7893 65.4124 12.612 65.5991 12.388H63.9191V9.868H66.1031V9.56H64.1991C64.2177 8.776 64.1244 7.94533 63.9191 7.068H65.0391C67.1297 7.068 69.6591 7.00267 72.6271 6.872C72.4404 7.80533 72.3471 8.636 72.3471 9.364L70.4991 9.448V9.868H72.6271V12.388H70.6671C71.4137 12.78 72.2817 13.032 73.2711 13.144L73.0191 13.368C73.4857 13.256 73.8777 13.1347 74.1951 13.004C74.5311 12.8547 74.8297 12.6493 75.0911 12.388H73.1031V9.868H75.3991V9.56H73.1871C73.2057 8.73867 73.1031 7.908 72.8791 7.068H74.1391C76.4537 7.068 79.2444 7.00267 82.5111 6.872C82.3057 7.74933 82.2031 8.58 82.2031 9.364L79.9631 9.448V9.868H82.5111V12.388H80.2711C80.9617 12.836 81.8951 13.1627 83.0711 13.368C82.5484 14.0773 82.1844 15.1133 81.9791 16.476C81.0644 16.14 80.3924 15.5333 79.9631 14.656V16.364H76.4911V16.784H82.4831V18.884H76.4911ZM63.4711 13.816C63.4151 15.832 63.2937 17.652 63.1071 19.276H64.4791V16.672H70.1071V19.276H70.8911V16.028H71.7311C71.2457 15.7667 70.8351 15.5053 70.4991 15.244V16.364H66.1031V15.02C65.7111 15.692 65.1697 16.1773 64.4791 16.476C64.4044 15.9347 64.2924 15.4587 64.1431 15.048C63.9937 14.6187 63.7697 14.208 63.4711 13.816ZM73.3551 16.028C73.0751 15.468 72.7391 14.9173 72.3471 14.376C72.1604 14.768 71.9737 15.3187 71.7871 16.028H73.3551ZM75.3991 14.712C75.1377 15.1413 74.7177 15.58 74.1391 16.028H75.3991V14.712ZM111.491 15.048V20.368H103.511V23.14H97.3791V20.368H85.1711V15.048H88.8111V12.892C88.4377 13.284 88.0364 13.6573 87.6071 14.012C87.1404 12.6307 86.6924 11.4453 86.2631 10.456C85.8524 9.448 85.3577 8.48667 84.7791 7.572C85.7311 6.93733 86.4871 6.07867 87.0471 4.996C87.6257 3.91333 87.9244 2.69067 87.9431 1.328L94.2711 1.384C94.2337 1.81333 94.1777 2.27067 94.1031 2.756H110.427V7.796H103.511V9H109.671V13.452H103.511V15.048H111.491ZM97.3791 7.796H92.4791L91.8351 9H97.3791V7.796ZM94.8311 13.452V15.048H97.3791V13.452H94.8311ZM136.831 15.496C137.204 16.0747 137.68 16.5227 138.259 16.84C138.838 17.1573 139.556 17.3627 140.415 17.456C140.004 18.24 139.65 19.0707 139.351 19.948C139.071 20.8067 138.782 21.8987 138.483 23.224C137.438 22.5893 136.504 21.74 135.683 20.676C135.702 20.7693 135.711 20.9 135.711 21.068C135.711 22.1133 135.188 22.692 134.143 22.804C133.042 22.8787 132.034 22.916 131.119 22.916C130.167 22.916 129.252 22.8787 128.375 22.804C127.759 22.748 127.302 22.608 127.003 22.384C126.723 22.1413 126.583 21.796 126.583 21.348V21.264C125.911 21.9547 125.062 22.608 124.035 23.224C123.718 21.712 123.391 20.4893 123.055 19.556L123.223 21.236L123.279 21.824L121.907 21.992L120.619 22.16C120.526 18.9493 120.479 16.476 120.479 14.74L122.887 14.6C122.887 15.8693 122.896 16.7747 122.915 17.316C124.184 17.036 125.108 16.4293 125.687 15.496H123.223V13.872L120.563 14.292L120.507 13.704L119.975 13.788V23.028H115.915V14.348C114.926 14.4787 113.88 14.5907 112.779 14.684C112.779 13.004 112.704 11.632 112.555 10.568L114.263 10.512L114.991 9.588C114.599 9.10267 114.16 8.59867 113.675 8.076C113.19 7.55333 112.77 7.13333 112.415 6.816L113.983 2.98C114.375 3.372 114.571 3.568 114.571 3.568C115.019 2.82133 115.439 1.972 115.831 1.02L119.471 2.028C118.332 3.89467 117.483 5.23867 116.923 6.06L117.259 6.452C118.379 4.772 119.368 3.07333 120.227 1.356L123.587 2.504H128.487L128.683 1.86H133.303L133.107 2.504H139.015V15.496H136.831ZM122.327 6.648L122.831 9.756C122.943 10.316 123.074 11.0813 123.223 12.052V3.848L121.291 6.816L122.327 6.648ZM127.451 5.808V6.34L128.459 5.92C128.851 6.12533 129.14 6.312 129.327 6.48C129.476 6.312 129.626 6.088 129.775 5.808H127.451ZM134.843 6.228V5.808H132.043L131.903 6.228H134.843ZM127.451 7.824C127.918 7.61867 128.216 7.47867 128.347 7.404C128.086 7.19867 127.787 6.99333 127.451 6.788V7.824ZM132.155 8.776C132.416 8.58933 132.668 8.34667 132.911 8.048H131.091L132.155 8.776ZM128.431 9.868C128.188 9.51333 127.862 9.10267 127.451 8.636V9.952L128.431 9.868ZM120.003 10.316C119.91 9.71867 119.844 9.29867 119.807 9.056L119.471 9.56C119.396 9.672 119.312 9.79333 119.219 9.924C119.126 10.0547 119.023 10.204 118.911 10.372L120.003 10.316ZM129.831 9.196C129.551 9.43867 129.262 9.65333 128.963 9.84C129.504 9.784 129.962 9.7 130.335 9.588L129.831 9.196ZM134.451 10.736L133.527 11.828H134.843V9.504C134.619 9.784 134.339 10.0827 134.003 10.4L134.451 10.736ZM127.451 11.828H128.151C127.964 11.3427 127.731 10.876 127.451 10.428V11.828ZM132.687 11.296C132.463 11.4267 132.09 11.604 131.567 11.828H133.247L132.687 11.296ZM113.059 14.992C113.414 14.992 113.908 14.9733 114.543 14.936L115.439 14.908V15.86C115.439 17.092 115.42 18.184 115.383 19.136C115.346 20.088 115.252 21.152 115.103 22.328C114.954 22.3093 114.636 22.272 114.151 22.216C113.684 22.1413 113.134 22.104 112.499 22.104C112.742 20.872 112.891 19.7613 112.947 18.772C113.022 17.764 113.059 16.504 113.059 14.992ZM130.671 15.496H126.751C127.647 16.056 128.431 16.4853 129.103 16.784H129.747C129.598 16.5973 129.318 16.2987 128.907 15.888L130.671 15.496ZM134.059 16.168C134.563 15.9627 135.067 15.7387 135.571 15.496H133.219C133.686 15.888 133.966 16.112 134.059 16.168ZM131.959 18.492C132.22 18.4733 132.351 18.3707 132.351 18.184C132.351 18.1653 132.314 17.988 132.239 17.652L130.811 18.044L130.139 17.232L129.999 18.016C129.98 18.072 129.971 18.156 129.971 18.268C129.971 18.4547 130.064 18.548 130.251 18.548C131.222 18.548 131.791 18.5293 131.959 18.492ZM132.435 17.624C132.771 17.68 133.098 17.708 133.415 17.708C133.658 17.708 133.844 17.6987 133.975 17.68L133.807 17.232L132.435 17.624ZM164.215 12.696C164.794 13.0693 165.298 13.3587 165.727 13.564C166.156 13.7693 166.623 13.928 167.127 14.04C167.426 15.5893 167.575 17.036 167.575 18.38C167.575 19.6867 167.426 20.6853 167.127 21.376C166.922 21.8613 166.679 22.216 166.399 22.44C166.119 22.6453 165.876 22.7667 165.671 22.804C165.466 22.8227 165.214 22.832 164.915 22.832H162.143C161.359 22.832 160.752 22.7667 160.323 22.636C159.912 22.4867 159.614 22.244 159.427 21.908C159.259 21.5533 159.175 21.04 159.175 20.368C159.175 20.1813 159.194 19.808 159.231 19.248L159.763 12.78L159.147 12.836C159.072 15.5427 158.914 17.624 158.671 19.08C158.428 20.5173 158.092 21.8613 157.663 23.112C155.908 22.5147 154.471 22.0853 153.351 21.824L151.671 21.992L150.159 22.16C150.047 19.2667 149.991 16.7933 149.991 14.74L152.847 14.6C152.847 16.5973 152.922 18.3427 153.071 19.836C153.444 18.996 153.743 18.0813 153.967 17.092C154.191 16.1027 154.34 14.8427 154.415 13.312L153.911 13.368C153.836 12.416 153.762 11.6227 153.687 10.988C153.612 10.3533 153.482 9.56 153.295 8.608L154.667 8.524L155.479 6.732H152.959V4.24L150.943 6.816L152.175 6.648C152.586 8.44 152.884 9.84933 153.071 10.876C153.276 11.884 153.426 12.8827 153.519 13.872L150.075 14.32L150.019 13.704L149.487 13.788V23.028H144.531V14.348C143.374 14.4787 142.142 14.5907 140.835 14.684C140.835 13.004 140.76 11.632 140.611 10.568L142.599 10.512L143.495 9.588C143.01 9.084 142.478 8.57067 141.899 8.048C141.32 7.52533 140.826 7.11467 140.415 6.816L142.263 2.98L142.991 3.568C143.42 2.97067 143.906 2.12133 144.447 1.02L148.787 2.028L148.311 2.672C147.172 4.25867 146.332 5.388 145.791 6.06L146.155 6.452C147.443 4.772 148.628 3.07333 149.711 1.356L153.519 2.448H157.159V1.412H162.283V2.448H167.239V6.732H165.195C166.203 7.684 167.276 8.57067 168.415 9.392C167.874 9.82133 167.304 10.372 166.707 11.044C166.128 11.716 165.652 12.36 165.279 12.976L164.551 12.276L164.243 12.304L164.215 12.696ZM160.491 6.732L159.847 8.188L161.163 8.104C160.902 7.73067 160.715 7.45067 160.603 7.264L162.647 6.732H160.491ZM149.263 8.972C148.74 9.60667 148.367 10.0733 148.143 10.372L149.515 10.316L149.263 8.972ZM163.851 16.896V16.952C163.851 17.0827 163.879 17.1947 163.935 17.288C164.01 17.3627 164.094 17.4 164.187 17.4C164.28 17.4 164.364 17.3533 164.439 17.26C164.514 17.1667 164.551 17.036 164.551 16.868C164.551 15.9347 164.42 14.7587 164.159 13.34L163.851 16.896ZM141.199 14.992C141.572 14.992 142.151 14.9733 142.935 14.936L144.055 14.908C144.055 16.5693 144.027 17.8947 143.971 18.884C143.934 19.8547 143.803 21.0027 143.579 22.328C143.448 22.3093 143.094 22.272 142.515 22.216C141.955 22.1413 141.283 22.104 140.499 22.104C140.798 20.872 140.984 19.7613 141.059 18.772C141.152 17.7827 141.199 16.5227 141.199 14.992ZM201.517 6.06L201.069 7.264C200.303 9.31733 199.771 10.6893 199.473 11.38C200.705 13.284 201.321 14.9827 201.321 16.476C201.321 18.1747 200.873 19.4813 199.977 20.396C199.099 21.292 197.886 21.7213 196.337 21.684C196.131 19.9667 195.767 18.576 195.245 17.512V22.888H190.009V5.36L189.141 6.62H189.365V10.372H185.977L185.725 10.596L185.361 10.904H189.337V23.056H184.129V22.776H181.049V23.056H175.785V16.728L174.973 17.064C174.805 15.0667 174.422 13.34 173.825 11.884C175.15 11.6787 176.279 11.4733 177.213 11.268C178.146 11.044 179.014 10.7453 179.817 10.372H174.497V6.62H177.493V6.032H175.029V2.224H177.493V1.468H183.177V2.224H186.173V3.204C186.247 3.05467 186.313 2.91467 186.369 2.784C186.443 2.63467 186.509 2.504 186.565 2.392L186.817 1.804L190.009 2.98V1.972H200.089L201.517 6.06ZM183.177 6.032V6.62H184.185L184.605 6.032H183.177ZM195.245 6.704V10.036C195.879 8.72933 196.206 7.61867 196.225 6.704H195.245ZM195.245 16.476C195.506 16.364 195.721 16.196 195.889 15.972C196.057 15.748 196.141 15.4773 196.141 15.16C196.141 14.5253 195.842 13.7973 195.245 12.976V16.476ZM181.049 15.048H184.129V14.32H181.049V15.048ZM181.049 18.184V18.94H184.129V18.184H181.049ZM229.461 11.884V14.936H226.437C227.146 15.3653 228.098 15.7573 229.293 16.112C229.293 18.2027 229.227 19.7333 229.097 20.704C228.985 21.656 228.789 22.2813 228.509 22.58C228.229 22.86 227.799 23 227.221 23C226.194 23 225.251 22.9253 224.393 22.776C223.553 22.608 222.657 22.356 221.705 22.02C220.846 21.7213 220.006 21.3573 219.185 20.928C217.654 21.6747 215.377 22.3933 212.353 23.084C211.121 22.244 209.898 21.5533 208.685 21.012C208.498 21.74 208.162 22.44 207.677 23.112L205.297 22.44C203.617 21.9547 202.553 21.656 202.105 21.544C202.571 21.0213 202.907 20.4707 203.113 19.892C203.337 19.2947 203.477 18.6413 203.533 17.932C203.589 17.2227 203.617 16.224 203.617 14.936H202.525V11.884H213.753C213.585 10.26 213.501 8.03867 213.501 5.22V3.372C213.538 3.33467 213.193 3.736 212.465 4.576L211.737 5.444L212.745 5.332C212.857 7.55333 213.071 9.532 213.389 11.268L210.897 11.576L210.813 10.988C208.89 11.1373 207.611 11.2307 206.977 11.268C204.737 11.4173 203.206 11.5293 202.385 11.604L202.273 8.356C203.243 8.31867 204.083 8.3 204.793 8.3C203.915 7.124 203.094 6.2 202.329 5.528L204.121 2.98L204.625 3.512C205.129 2.84 205.595 2.112 206.025 1.328L209.329 2.476C208.153 3.95067 207.266 5.01467 206.669 5.668L207.005 6.004C208.125 4.69733 209.207 3.372 210.253 2.028L213.501 3.26L213.529 1.44H218.793V3.652L219.269 2.98L219.689 3.456C220.23 2.69067 220.622 2.056 220.865 1.552L224.225 2.336C223.291 3.86667 222.545 5.03333 221.985 5.836L222.321 6.2C223.422 4.576 224.374 3.11067 225.177 1.804L228.845 2.728L227.025 5.472L228.341 5.332C228.415 6.41467 228.779 8.39333 229.433 11.268L226.577 11.576C226.539 11.4453 226.502 11.2493 226.465 10.988L223.413 11.24C223.973 11.4453 224.477 11.66 224.925 11.884H229.461ZM218.793 8.328C219.297 8.328 219.689 8.31867 219.969 8.3L218.793 6.844V8.328ZM210.505 8.16C210.467 7.89867 210.43 7.50667 210.393 6.984C210.15 7.28267 210.019 7.44133 210.001 7.46C209.553 7.964 209.338 8.20667 209.357 8.188C209.879 8.188 210.262 8.17867 210.505 8.16ZM225.989 8.16C225.951 7.936 225.914 7.61867 225.877 7.208L225.205 8.188L225.989 8.16ZM218.961 11.632C218.979 11.688 218.989 11.772 218.989 11.884H221.257L221.677 11.408C220.911 11.4453 220.006 11.52 218.961 11.632ZM214.901 16.336C214.751 16 214.574 15.5333 214.369 14.936H209.917C211.559 15.5893 213.221 16.056 214.901 16.336ZM220.417 15.86C220.977 15.4493 221.369 15.1413 221.593 14.936H219.857C220.006 15.216 220.193 15.524 220.417 15.86ZM224.841 16.7C224.878 16.364 224.915 15.776 224.953 14.936H221.985L224.841 16.7ZM215.125 16.812C214.677 17.2413 214.014 17.9693 213.137 18.996C214.126 18.772 215.069 18.5013 215.965 18.184C215.647 17.736 215.367 17.2787 215.125 16.812ZM224.169 18.184C224.318 18.2587 224.449 18.2213 224.561 18.072C224.673 17.904 224.766 17.5027 224.841 16.868L223.609 17.96L224.169 18.184ZM209.077 18.408C209.039 19.0053 209.002 19.4533 208.965 19.752C209.618 19.6773 210.439 19.5467 211.429 19.36C210.551 19.0613 209.767 18.744 209.077 18.408ZM240.689 0.823998C242.462 0.823998 244.095 1.12267 245.589 1.72C247.101 2.31733 248.295 3.148 249.173 4.212C250.05 5.276 250.489 6.49867 250.489 7.88C250.489 9 250.218 9.96133 249.677 10.764C249.135 11.5667 248.445 12.22 247.605 12.724L246.121 13.564C245.318 14.012 244.786 14.32 244.525 14.488C244.095 14.7493 243.797 15.0387 243.629 15.356C243.461 15.6733 243.377 16.0467 243.377 16.476H236.965C236.965 15.0573 237.301 13.872 237.973 12.92C238.645 11.9493 239.774 11.1093 241.361 10.4C242.07 10.0827 242.583 9.73733 242.901 9.364C243.237 8.972 243.405 8.53333 243.405 8.048C243.405 7.50667 243.143 7.04 242.621 6.648C242.117 6.256 241.473 6.06 240.689 6.06C239.625 6.06 238.794 6.32133 238.197 6.844C237.618 7.36667 237.329 8.104 237.329 9.056C237.329 9.42933 237.385 9.85867 237.497 10.344C236.003 9.91467 233.773 9.7 230.805 9.7C230.786 9.532 230.777 9.29867 230.777 9C230.777 7.432 231.187 6.032 232.009 4.8C232.849 3.54933 234.015 2.57867 235.509 1.888C237.021 1.17867 238.747 0.823998 240.689 0.823998ZM243.405 23.56H236.909V18.576H243.405V23.56Z" fill="#334155"/>
</svg>
